<svg xmlns="http://www.w3.org/2000/svg" viewBox="0 0 760 329" width="760" height="329" font-family="Inter, 'Segoe UI', system-ui, -apple-system, Arial, sans-serif"><rect x="0.8" y="0.8" width="758.5" height="327.5" rx="12" fill="#f9fafb" stroke="#e5e7eb" stroke-width="1.5"/><text x="28" y="41" font-size="19" fill="#1a2e4a" font-weight="700">Find Your CMI Level</text><text x="28" y="64.3" font-size="12.5" fill="#6b7280">Assignment help for every CMI qualification from Level 3 to Level 7</text><clipPath id="cc1"><rect x="28" y="84.6" width="132.8" height="202" rx="10"/></clipPath><g clip-path="url(#cc1)"><rect x="28" y="84.6" width="132.8" height="202" rx="0" fill="#ffffff" stroke="none" stroke-width="1"/><rect x="28" y="84.6" width="132.8" height="71.5" rx="0" fill="#0f766e" stroke="none" stroke-width="1"/><text x="40" y="110.6" font-size="16" fill="#fff" font-weight="700">Level 3</text><text x="40" y="127.3" font-size="10.5" fill="rgba(255,255,255,0.85)">First Line</text><text x="40" y="141" font-size="10.5" fill="rgba(255,255,255,0.85)">Management</text><text x="40" y="173.6" font-size="9.5" fill="#0f766e" font-weight="700">UNITS COVERED</text><text x="40" y="188.5" font-size="11" fill="#1f2937" font-weight="700">12 units</text><text x="40" y="211.5" font-size="9.5" fill="#0f766e" font-weight="700">SIZES</text><text x="40" y="226.4" font-size="11" fill="#1f2937">Award,</text><text x="40" y="241" font-size="11" fill="#1f2937">Certificate,</text><text x="40" y="255.5" font-size="11" fill="#1f2937">Diploma</text></g><rect x="28" y="84.6" width="132.8" height="202" rx="10" fill="none" stroke="#e5e7eb" stroke-width="1.5"/><clipPath id="cc2"><rect x="170.8" y="84.6" width="132.8" height="202" rx="10"/></clipPath><g clip-path="url(#cc2)"><rect x="170.8" y="84.6" width="132.8" height="202" rx="0" fill="#ffffff" stroke="none" stroke-width="1"/><rect x="170.8" y="84.6" width="132.8" height="71.5" rx="0" fill="#2563eb" stroke="none" stroke-width="1"/><text x="182.8" y="110.6" font-size="16" fill="#fff" font-weight="700">Level 4</text><text x="182.8" y="127.3" font-size="10.5" fill="rgba(255,255,255,0.85)">Management and</text><text x="182.8" y="141" font-size="10.5" fill="rgba(255,255,255,0.85)">Leadership</text><text x="182.8" y="173.6" font-size="9.5" fill="#2563eb" font-weight="700">UNITS COVERED</text><text x="182.8" y="188.5" font-size="11" fill="#1f2937" font-weight="700">11 units</text><text x="182.8" y="211.5" font-size="9.5" fill="#2563eb" font-weight="700">SIZES</text><text x="182.8" y="226.4" font-size="11" fill="#1f2937">Award,</text><text x="182.8" y="241" font-size="11" fill="#1f2937">Certificate,</text><text x="182.8" y="255.5" font-size="11" fill="#1f2937">Diploma</text></g><rect x="170.8" y="84.6" width="132.8" height="202" rx="10" fill="none" stroke="#e5e7eb" stroke-width="1.5"/><clipPath id="cc3"><rect x="313.6" y="84.6" width="132.8" height="202" rx="10"/></clipPath><g clip-path="url(#cc3)"><rect x="313.6" y="84.6" width="132.8" height="202" rx="0" fill="#ffffff" stroke="none" stroke-width="1"/><rect x="313.6" y="84.6" width="132.8" height="71.5" rx="0" fill="#15803d" stroke="none" stroke-width="1"/><text x="325.6" y="110.6" font-size="16" fill="#fff" font-weight="700">Level 5</text><text x="325.6" y="127.3" font-size="10.5" fill="rgba(255,255,255,0.85)">Management and</text><text x="325.6" y="141" font-size="10.5" fill="rgba(255,255,255,0.85)">Leadership</text><text x="325.6" y="173.6" font-size="9.5" fill="#15803d" font-weight="700">UNITS COVERED</text><text x="325.6" y="188.5" font-size="11" fill="#1f2937" font-weight="700">25 units</text><text x="325.6" y="211.5" font-size="9.5" fill="#15803d" font-weight="700">SIZES</text><text x="325.6" y="226.4" font-size="11" fill="#1f2937">Award,</text><text x="325.6" y="241" font-size="11" fill="#1f2937">Certificate,</text><text x="325.6" y="255.5" font-size="11" fill="#1f2937">Diploma</text></g><rect x="313.6" y="84.6" width="132.8" height="202" rx="10" fill="none" stroke="#e5e7eb" stroke-width="1.5"/><clipPath id="cc4"><rect x="456.4" y="84.6" width="132.8" height="202" rx="10"/></clipPath><g clip-path="url(#cc4)"><rect x="456.4" y="84.6" width="132.8" height="202" rx="0" fill="#ffffff" stroke="none" stroke-width="1"/><rect x="456.4" y="84.6" width="132.8" height="85.2" rx="0" fill="#b45309" stroke="none" stroke-width="1"/><text x="468.4" y="110.6" font-size="16" fill="#fff" font-weight="700">Level 6</text><text x="468.4" y="127.3" font-size="10.5" fill="rgba(255,255,255,0.85)">Professional</text><text x="468.4" y="141" font-size="10.5" fill="rgba(255,255,255,0.85)">Management and</text><text x="468.4" y="154.6" font-size="10.5" fill="rgba(255,255,255,0.85)">Leadership</text><text x="468.4" y="187.3" font-size="9.5" fill="#b45309" font-weight="700">UNITS COVERED</text><text x="468.4" y="202.2" font-size="11" fill="#1f2937" font-weight="700">16 units</text><text x="468.4" y="225.2" font-size="9.5" fill="#b45309" font-weight="700">SIZES</text><text x="468.4" y="240.1" font-size="11" fill="#1f2937">Award,</text><text x="468.4" y="254.6" font-size="11" fill="#1f2937">Certificate,</text><text x="468.4" y="269.1" font-size="11" fill="#1f2937">Diploma</text></g><rect x="456.4" y="84.6" width="132.8" height="202" rx="10" fill="none" stroke="#e5e7eb" stroke-width="1.5"/><clipPath id="cc5"><rect x="599.2" y="84.6" width="132.8" height="202" rx="10"/></clipPath><g clip-path="url(#cc5)"><rect x="599.2" y="84.6" width="132.8" height="202" rx="0" fill="#ffffff" stroke="none" stroke-width="1"/><rect x="599.2" y="84.6" width="132.8" height="85.2" rx="0" fill="#6d28d9" stroke="none" stroke-width="1"/><text x="611.2" y="110.6" font-size="16" fill="#fff" font-weight="700">Level 7</text><text x="611.2" y="127.3" font-size="10.5" fill="rgba(255,255,255,0.85)">Strategic</text><text x="611.2" y="141" font-size="10.5" fill="rgba(255,255,255,0.85)">Management and</text><text x="611.2" y="154.6" font-size="10.5" fill="rgba(255,255,255,0.85)">Leadership</text><text x="611.2" y="187.3" font-size="9.5" fill="#6d28d9" font-weight="700">UNITS COVERED</text><text x="611.2" y="202.2" font-size="11" fill="#1f2937" font-weight="700">17 units</text><text x="611.2" y="225.2" font-size="9.5" fill="#6d28d9" font-weight="700">SIZES</text><text x="611.2" y="240.1" font-size="11" fill="#1f2937">Award,</text><text x="611.2" y="254.6" font-size="11" fill="#1f2937">Certificate,</text><text x="611.2" y="269.1" font-size="11" fill="#1f2937">Diploma</text></g><rect x="599.2" y="84.6" width="132.8" height="202" rx="10" fill="none" stroke="#e5e7eb" stroke-width="1.5"/><text x="732" y="311.2" font-size="10.5" fill="#6b7280" text-anchor="end">cmiassignmentsupport.co.uk · CMI assignment help by level</text></svg>
