<svg xmlns="http://www.w3.org/2000/svg" viewBox="0 0 760 255" width="760" height="255" font-family="Inter, 'Segoe UI', system-ui, -apple-system, Arial, sans-serif"><rect x="0.8" y="0.8" width="758.5" height="253.5" rx="12" fill="#f9fafb" stroke="#e5e7eb" stroke-width="1.5"/><text x="28" y="41" font-size="19" fill="#1a2e4a" font-weight="700">Submission-Ready Checklist</text><text x="28" y="64.3" font-size="12.5" fill="#6b7280">Included in every completed CMI assignment</text><rect x="28" y="86.6" width="20" height="20" rx="5" fill="#ffffff" stroke="#15803d" stroke-width="2"/><g transform="translate(31.5 90.1) scale(0.5)" fill="none" stroke="#15803d" stroke-width="2.4" stroke-linecap="round" stroke-linejoin="round"><path d="M5 12.5l4.5 4.5L19 7.5"/></g><text x="58" y="100" font-size="12.5" fill="#1f2937">Title page</text><rect x="28" y="116.6" width="20" height="20" rx="5" fill="#ffffff" stroke="#15803d" stroke-width="2"/><g transform="translate(31.5 120.1) scale(0.5)" fill="none" stroke="#15803d" stroke-width="2.4" stroke-linecap="round" stroke-linejoin="round"><path d="M5 12.5l4.5 4.5L19 7.5"/></g><text x="58" y="130" font-size="12.5" fill="#1f2937">Table of contents</text><rect x="28" y="146.6" width="20" height="20" rx="5" fill="#ffffff" stroke="#15803d" stroke-width="2"/><g transform="translate(31.5 150.1) scale(0.5)" fill="none" stroke="#15803d" stroke-width="2.4" stroke-linecap="round" stroke-linejoin="round"><path d="M5 12.5l4.5 4.5L19 7.5"/></g><text x="58" y="160" font-size="12.5" fill="#1f2937">Executive summary</text><rect x="28" y="176.6" width="20" height="20" rx="5" fill="#ffffff" stroke="#15803d" stroke-width="2"/><g transform="translate(31.5 180.1) scale(0.5)" fill="none" stroke="#15803d" stroke-width="2.4" stroke-linecap="round" stroke-linejoin="round"><path d="M5 12.5l4.5 4.5L19 7.5"/></g><text x="58" y="190" font-size="12.5" fill="#1f2937">Correct structure</text><rect x="389" y="86.6" width="20" height="20" rx="5" fill="#ffffff" stroke="#15803d" stroke-width="2"/><g transform="translate(392.5 90.1) scale(0.5)" fill="none" stroke="#15803d" stroke-width="2.4" stroke-linecap="round" stroke-linejoin="round"><path d="M5 12.5l4.5 4.5L19 7.5"/></g><text x="419" y="100" font-size="12.5" fill="#1f2937">Within the word count</text><rect x="389" y="116.6" width="20" height="20" rx="5" fill="#ffffff" stroke="#15803d" stroke-width="2"/><g transform="translate(392.5 120.1) scale(0.5)" fill="none" stroke="#15803d" stroke-width="2.4" stroke-linecap="round" stroke-linejoin="round"><path d="M5 12.5l4.5 4.5L19 7.5"/></g><text x="419" y="130" font-size="12.5" fill="#1f2937">Harvard referencing</text><rect x="389" y="146.6" width="20" height="20" rx="5" fill="#ffffff" stroke="#15803d" stroke-width="2"/><g transform="translate(392.5 150.1) scale(0.5)" fill="none" stroke="#15803d" stroke-width="2.4" stroke-linecap="round" stroke-linejoin="round"><path d="M5 12.5l4.5 4.5L19 7.5"/></g><text x="419" y="160" font-size="12.5" fill="#1f2937">Delivered as a .docx file</text><text x="732" y="237.1" font-size="10.5" fill="#6b7280" text-anchor="end">cmiassignmentsupport.co.uk · Pay someone to do my CMI assignment</text></svg>
