<svg xmlns="http://www.w3.org/2000/svg" viewBox="0 0 760 443" width="760" height="443" font-family="Inter, 'Segoe UI', system-ui, -apple-system, Arial, sans-serif"><rect x="0.8" y="0.8" width="758.5" height="441.5" rx="12" fill="#f9fafb" stroke="#e5e7eb" stroke-width="1.5"/><text x="28" y="41" font-size="19" fill="#1a2e4a" font-weight="700">Ansoff Matrix (CMI 704)</text><text x="28" y="64.3" font-size="12.5" fill="#6b7280">Four growth directions, from lowest to highest risk</text><rect x="74" y="84.6" width="325" height="132" rx="10" fill="#fef3c7" stroke="#fcd34d" stroke-width="1.5"/><text x="84" y="106.1" font-size="12.5" fill="#78350f" font-weight="700">Product Development</text><text x="84" y="122.6" font-size="11" fill="#78350f">Create new offers for existing markets.</text><rect x="84" y="187.6" width="94.1" height="19" rx="9.5" fill="#b45309" stroke="none" stroke-width="1"/><text x="131.1" y="200.5" font-size="9.5" font-weight="700" fill="#fff" text-anchor="middle">MODERATE RISK</text><rect x="407" y="84.6" width="325" height="132" rx="10" fill="#fee2e2" stroke="#fca5a5" stroke-width="1.5"/><text x="417" y="106.1" font-size="12.5" fill="#7f1d1d" font-weight="700">Diversification</text><text x="417" y="122.6" font-size="11" fill="#7f1d1d">New products in new markets: new territory.</text><rect x="417" y="187.6" width="88.4" height="19" rx="9.5" fill="#b91c1c" stroke="none" stroke-width="1"/><text x="461.2" y="200.5" font-size="9.5" font-weight="700" fill="#fff" text-anchor="middle">HIGHEST RISK</text><rect x="74" y="224.6" width="325" height="132" rx="10" fill="#dcfce7" stroke="#86efac" stroke-width="1.5"/><text x="84" y="246.1" font-size="12.5" fill="#14532d" font-weight="700">Market Penetration</text><text x="84" y="262.6" font-size="11" fill="#14532d">Grow share of existing markets with existing</text><text x="84" y="276.9" font-size="11" fill="#14532d">offers.</text><rect x="84" y="327.6" width="82.7" height="19" rx="9.5" fill="#15803d" stroke="none" stroke-width="1"/><text x="125.3" y="340.5" font-size="9.5" font-weight="700" fill="#fff" text-anchor="middle">LOWEST RISK</text><rect x="407" y="224.6" width="325" height="132" rx="10" fill="#fef3c7" stroke="#fcd34d" stroke-width="1.5"/><text x="417" y="246.1" font-size="12.5" fill="#78350f" font-weight="700">Market Development</text><text x="417" y="262.6" font-size="11" fill="#78350f">Reach new markets with existing offers.</text><rect x="417" y="327.6" width="94.1" height="19" rx="9.5" fill="#b45309" stroke="none" stroke-width="1"/><text x="464.1" y="340.5" font-size="9.5" font-weight="700" fill="#fff" text-anchor="middle">MODERATE RISK</text><text transform="translate(62 150.6) rotate(-90)" font-size="11" fill="#6b7280" text-anchor="middle" font-weight="600">New</text><text transform="translate(62 290.6) rotate(-90)" font-size="11" fill="#6b7280" text-anchor="middle" font-weight="600">Existing</text><text x="236.5" y="372.6" font-size="11" fill="#6b7280" text-anchor="middle" font-weight="600">Existing</text><text x="569.5" y="372.6" font-size="11" fill="#6b7280" text-anchor="middle" font-weight="600">New</text><text transform="translate(36 220.6) rotate(-90)" font-size="12.5" fill="#1a2e4a" text-anchor="middle" font-weight="700">Products and services</text><text x="403" y="392.6" font-size="12.5" fill="#1a2e4a" text-anchor="middle" font-weight="700">Markets</text><text x="732" y="425.1" font-size="10.5" fill="#6b7280" text-anchor="end">cmiassignmentsupport.co.uk · CMI Unit 704 assignment help</text></svg>
